<?xml version="1.0" encoding="UTF-8"?>
<svg width="70px" height="70px" viewBox="0 0 70 70" version="1.1" xmlns="http://www.w3.org/2000/svg" xmlns:xlink="http://www.w3.org/1999/xlink">
    <title>ring-logo-sq</title>
    <defs>
        <linearGradient x1="50%" y1="0%" x2="50%" y2="100%" id="linearGradient-1">
            <stop stop-color="#1c402e" offset="0%"></stop>
            <stop stop-color="#5b9a89" offset="43.3479149%"></stop>
            <stop stop-color="#9fd1b8" offset="99.9439495%"></stop>
            <stop stop-color="#e4f1e5" offset="100%"></stop>
        </linearGradient>
    </defs>
    <g id="ring-logo-sq" stroke="none" stroke-width="1" fill="none" fill-rule="evenodd">
        <path d="M27.9676674,56.8537156 C30.2309469,57.7513166 32.448037,58.200117 34.6189376,58.200117 C42.0092379,58.200117 47.8926097,56.0424225 52.2690531,51.7270334 C56.6454965,47.4116442 58.8337182,41.6175151 58.8337182,34.344646 C58.8337182,31.8359665 58.1928406,29.2007022 56.9110855,26.4388531 C55.6293303,23.6770041 53.9145497,21.151063 51.7667436,18.8610298 C49.6189376,16.5709967 46.9919169,14.6779793 43.8856813,13.1819778 C40.7794457,11.6859762 37.2632794,10.9379754 33.3371824,10.9379754 C29.4110855,10.9379754 25.704388,11.927638 22.2170901,13.9069631 C18.7297921,15.8862883 16.039261,18.6251219 14.1454965,22.123464 C12.2517321,25.6218061 11.3048499,29.6782719 11.3048499,34.2928613 C11.3048499,38.9074508 12.9965358,43.3897016 16.3799076,47.7396138 C19.7632794,52.089526 23.6258661,55.12756 27.9676674,56.8537156 Z M13.4526559,55.2311293 C10.8660508,52.5383265 8.81062356,49.3449386 7.28637413,45.6509655 C5.76212471,41.9569924 5,38.1364346 5,34.189292 C5,30.2421494 5.80254042,26.4791301 7.40762125,22.9002341 C9.01270208,19.321338 11.1374134,16.2257656 13.7817552,13.6135167 C16.426097,11.0012678 19.5438799,8.91261947 23.1351039,7.34757168 C26.7263279,5.78252389 30.2886836,5 33.8221709,5 C37.3556582,5 40.6581986,5.46030817 43.7297921,6.38092452 C49.8036952,8.1991418 54.8672055,11.5881607 58.9203233,16.5479813 C62.9734411,21.5078018 65,27.3364541 65,34.033938 C65,37.9695728 64.2840647,41.7325922 62.852194,45.3229959 C61.4203233,48.9133996 59.4168591,52.0952799 56.8418014,54.8686366 C54.2667436,57.6419934 51.02194,59.8572264 47.1073903,61.5143359 C43.1928406,63.1714453 39.0646651,64 34.7228637,64 C30.3810624,64 26.3972286,63.2059684 22.7713626,61.6179052 C19.1454965,60.029842 16.039261,57.9009167 13.4526559,55.2311293 Z" id="Shape" fill="url(#linearGradient-1)" fill-rule="nonzero"></path>
    </g>
    <style>
        @keyframes spin {
            from {
                transform: rotate(0deg);
            }
            to {
                transform: rotate(360deg);
            }
        }
        #ring-logo-sq {
            animation: spin 2s linear infinite;
            transform-origin: center;
        }
    </style>
</svg>
