<?xml version="1.0" encoding="UTF-8"?>
<svg width="720px" height="130px" viewBox="0 0 720 130" version="1.1" xmlns="http://www.w3.org/2000/svg" xmlns:xlink="http://www.w3.org/1999/xlink">
    <title>Frame Copy 2</title>
    <g id="Frame-Copy-2" stroke="none" fill="none" fill-rule="nonzero">
        <path d="M25.963939,82.8349515 L24.9653259,82.9350905 L25.963939,82.8349515 Z" id="path214" fill="#231F20" transform="translate(25.4646, 82.885) scale(-1, 1) rotate(-180) translate(-25.4646, -82.885)"></path>
        <path d="M83.7569245,33.575354 C76.0108013,27.5533154 66.2576293,23.9667129 55.6618585,23.9667129 C30.4345215,23.9667129 9.98613037,44.3099797 9.98613037,69.4054048 C9.98613037,94.4972325 30.4345215,114.840499 55.6618585,114.840499 C66.3154902,114.840499 76.1156741,111.214325 83.8834951,105.134729 C73.1828515,96.8175521 66.3010249,83.8633339 66.3010249,69.3046777 C66.3010249,54.8071773 73.128607,41.8961279 83.7569245,33.575354" id="path636" fill="#EB001B" transform="translate(46.9348, 69.4036) scale(-1, 1) rotate(-180) translate(-46.9348, -69.4036)"></path>
        <path d="M158.779473,69.4036061 C158.779473,44.3127716 138.329774,23.9667129 113.103054,23.9667129 C102.449683,23.9667129 92.6497392,27.5963404 84.8821082,33.6756967 C95.5861062,41.9925439 102.464148,54.9462493 102.464148,69.5043292 C102.464148,84.0012557 95.6367332,96.9117941 85.0086757,105.232239 C92.7582257,111.254039 102.507543,114.840499 113.103054,114.840499 C138.329774,114.840499 158.779473,94.4980378 158.779473,69.4036061" id="path637" fill="#F79E1B" transform="translate(121.8308, 69.4036) scale(-1, 1) rotate(-180) translate(-121.8308, -69.4036)"></path>
        <path d="M102.857143,69.4549123 C102.857143,54.6237617 95.7999613,41.4270793 84.8171762,32.9542302 C73.9123094,41.430744 66.9070735,54.5834497 66.9070735,69.3522999 C66.9070735,84.1834505 73.9679654,97.3801329 84.9470402,105.852982 C95.8519069,97.3764682 102.857143,84.2237625 102.857143,69.4549123" id="path638" fill="#FF5A00" transform="translate(84.8821, 69.4036) scale(-1, 1) rotate(-180) translate(-84.8821, -69.4036)"></path>
        <path d="M262.169932,104.854369 L243.022474,56.3183302 L235.307784,97.4655256 C234.504575,101.753811 230.805929,104.854369 226.498399,104.854369 L196.339209,104.854369 C195.448554,104.854369 194.726314,104.125984 194.729542,103.223705 C194.729542,102.39689 195.335198,101.704596 196.144885,101.602884 C206.201186,100.362661 211.577502,99.3258605 215.804064,91.42846 C220.224951,83.163586 223.615916,60.5967724 230.98406,32.9542302 L250.944443,32.9542302 L281.608877,104.854369 L262.169932,104.854369" id="path425" fill="#1534CC" transform="translate(238.1692, 68.9043) scale(-1, 1) rotate(-180) translate(-238.1692, -68.9043)"></path>
        <polyline id="path426" fill="#1534CC" transform="translate(291.0957, 68.9043) scale(-1, 1) rotate(-180) translate(-291.0957, -68.9043)" points="289.86833 104.854369 274.618585 32.9542302 292.323071 32.9542302 307.572816 104.854369 289.86833 104.854369"></polyline>
        <path d="M343.313627,75.6089208 C337.153845,78.4548844 331.760368,81.0077853 331.760368,85.4069807 C331.760368,88.7804569 335.451672,92.2906957 343.104931,92.2906957 C349.861452,92.4567645 355.864712,90.0829574 358.25819,88.7674319 L363.495146,101.932456 C359.931016,103.7527 354.266886,105.852982 344.494062,105.852982 C328.440803,105.852982 314.761458,97.3118351 314.761458,82.5056609 C314.761458,72.2680071 323.402761,66.693305 331.659281,63.0886349 C338.856019,59.9170463 342.159279,57.4064766 342.159279,53.5413064 C342.159279,48.0187044 336.374498,45.5406972 330.514716,45.5406972 C322.946239,45.5406972 316.117979,47.8265856 311.291893,50.7311616 L305.575589,37.8787381 C309.508198,34.9546246 317.520153,31.9556172 328.369064,31.9556172 C345.041888,31.9556172 359.327755,39.9594827 359.327755,56.1918949 C359.327755,65.6740984 352.949495,71.3009005 343.313627,75.6089208" id="path427" fill="#1534CC" transform="translate(334.5354, 68.9043) scale(-1, 1) rotate(-180) translate(-334.5354, -68.9043)"></path>
        <path d="M388.838587,57.2492543 L399.172671,85.4840119 L404.990911,57.2492543 L388.838587,57.2492543 Z M412.456155,104.854369 L395.225219,104.854369 C391.784321,104.854369 388.683876,102.800454 387.36503,99.6441189 L359.500693,32.9542302 L378.880125,32.9542302 L383.021764,43.4239456 L407.82532,43.4239456 L409.841601,32.9542302 L427.40638,32.9542302 L412.456155,104.854369" id="path428" fill="#1534CC" transform="translate(393.4535, 68.9043) scale(-1, 1) rotate(-180) translate(-393.4535, -68.9043)"></path>
        <path d="M714.800123,61.9883777 C708.048919,63.027196 702.803469,70.7493491 702.803469,80.119003 C702.803469,88.3240443 706.827038,95.2670836 712.360474,97.5679038 C712.87062,97.7586244 713.265571,97.8722451 713.590584,97.9655764 C709.509417,103.877913 702.462,108.848821 693.785408,108.848821 C686.569314,108.848821 684.232517,104.324281 676.345828,104.060518 C668.467367,104.324281 666.126457,108.848821 658.910362,108.848821 C623.90778,108.848821 627.417089,47.2055066 660.337948,33.2260966 C664.937488,31.671927 667.574612,37.2758647 676.345828,37.5599166 C685.121158,37.2758647 687.758283,31.671927 692.357823,33.2260966 C703.831989,38.0996151 711.739248,48.7637341 715.676422,60.5924656 C715.853327,61.0956432 715.984977,61.5541841 716.005548,61.8828727 C716.005548,61.8828727 715.688764,61.8869306 714.800123,61.9883777" id="path856" fill="#000000" transform="translate(675.0624, 70.9015) scale(-1, 1) rotate(-180) translate(-675.0624, -70.9015)"></path>
        <path d="M672.809559,11.9873467 C675.052542,12.2487839 682.385373,13.4661008 686.752207,18.5886357 C691.114933,23.7070857 691.123149,31.1049411 691.012232,33.343497 C690.991692,33.715228 690.667158,33.9930051 690.293327,33.9480705 C688.054452,33.6907183 680.717513,32.4734014 676.354787,27.3508665 C671.987953,22.2283316 671.983845,14.8345611 672.094762,12.5919202 C672.111194,12.2242742 672.439836,11.9464972 672.809559,11.9873467" id="path857" fill="#000000" transform="translate(681.5534, 22.9681) scale(-1, 1) rotate(-180) translate(-681.5534, -22.9681)"></path>
        <path d="M549.014362,37.3324808 L549.014362,37.3324808 C544.831829,41.4648668 539.155536,43.9701035 532.447835,43.9701035 C520.821392,43.9701035 510.93767,36.4472254 507.334859,25.963939 L493.31484,36.9669097 C500.506235,51.181171 515.169994,60.9153953 532.088621,60.9153953 C543.291832,60.9153953 553.506316,56.6468161 561.220527,49.6328702 L549.014362,37.3324808" id="path210" fill="#EB4335" transform="translate(527.2677, 43.4397) scale(-1, 1) rotate(-180) translate(-527.2677, -43.4397)"></path>
        <path d="M506.817908,69.8992912 C506.817908,66.8790073 507.311151,63.9782311 508.214829,61.2693914 L494.004395,49.9306519 C491.008935,55.8843049 489.320388,62.6274327 489.320388,69.783405 C489.320388,77.0154276 491.044938,83.84547 494.101604,89.8751734 L508.294036,78.7573419 C507.339953,75.9833162 506.817908,73.0028682 506.817908,69.8992912" id="path211" fill="#FBBC05" transform="translate(498.8072, 69.9029) scale(-1, 1) rotate(-180) translate(-498.8072, -69.9029)"></path>
        <path d="M560.221914,88.478743 C552.830934,81.670064 542.84217,77.8918169 531.889825,77.8918169 C515.025402,77.8918169 500.416393,87.5350715 493.31484,101.693705 L507.246167,112.843273 C510.758117,102.309763 520.623346,94.7247801 532.246314,94.7247801 C538.052504,94.856538 543.046887,96.2310935 546.968271,98.9517163 L560.221914,88.478743" id="path212" fill="#34A853" transform="translate(526.7684, 95.3675) scale(-1, 1) rotate(-180) translate(-526.7684, -95.3675)"></path>
        <path d="M559.473695,61.9140083 L546.310871,72.4204003 C550.622529,75.4462126 553.626667,80.1296128 554.958724,86.6063516 L554.958724,86.6063516 L531.262136,86.6063516 L531.262136,102.857143 L571.385086,102.857143 C574.326127,85.1130935 569.1276,70.8914184 559.473695,61.9140083" id="path213" fill="#4285F4" transform="translate(551.7337, 82.3856) scale(-1, 1) rotate(-180) translate(-551.7337, -82.3856)"></path>
    </g>
</svg>